<svg xmlns="http://www.w3.org/2000/svg" version="1.1" xmlns:xlink="http://www.w3.org/1999/xlink" width="431" height="416"><svg xmlns="http://www.w3.org/2000/svg" version="1.1" xmlns:xlink="http://www.w3.org/1999/xlink" width="431" height="416"><svg width="431" height="416" viewBox="0 0 431 416" fill="none" xmlns="http://www.w3.org/2000/svg">
            <defs>

                <linearGradient id="shapeGradient" x1="1" y1="0" x2="0" y2="1">
                    <stop offset="0%" stop-color="#2a3aa1"></stop>
                    <stop offset="45%" stop-color="#7f82c6"></stop>
                    <stop offset="100%" stop-color="#ffffff"></stop>
                </linearGradient>
            </defs>
            <path fill-rule="evenodd" clip-rule="evenodd" d="M161.739 0.199983C156.545 0.495804 153.561 0.916664 146.949 2.28605C145.302 2.62718 142.999 3.09903 141.831 3.33418C140.664 3.56934 139.582 3.88837 139.429 4.04264C139.275 4.19692 138.786 4.32349 138.342 4.32349C137.898 4.32349 135.357 5.0986 132.695 6.04598C130.032 6.99298 127.473 7.85573 127.006 7.96283C126.54 8.06992 126.067 8.30584 125.954 8.48708C125.842 8.66869 125.466 8.81998 125.117 8.8241C124.769 8.82784 123.379 9.3914 122.028 10.0763C120.677 10.7612 119.076 11.4449 118.471 11.5962C117.866 11.7475 117.118 12.0916 116.809 12.3616C116.5 12.6315 115.382 13.3 114.324 13.847C113.266 14.3945 112.103 15.1715 111.739 15.5741C111.375 15.9766 110.876 16.3061 110.631 16.3061C110.386 16.3061 109.88 16.6431 109.508 17.055C109.135 17.4669 108.645 17.8077 108.42 17.8122C108.195 17.8167 107.198 18.533 106.206 19.4036C105.213 20.2742 103.473 21.7451 102.338 22.6719C97.0109 27.0216 86.1068 38.2309 86.1068 39.3569C86.1068 39.6033 85.8567 40.013 85.5508 40.2665C85.2453 40.5204 84.6257 41.4677 84.1741 42.372C83.7226 43.276 83.2145 44.0159 83.0452 44.0159C82.8756 44.0159 82.7371 44.2424 82.7371 44.5195C82.7371 44.7966 82.4001 45.3284 81.9883 45.701C81.5764 46.0735 81.2394 46.6053 81.2394 46.882C81.2394 47.1587 80.6617 48.5229 79.956 49.9132C79.2498 51.3036 78.5478 52.9467 78.3958 53.5645C78.2441 54.1824 77.8098 55.1934 77.4313 55.8113C76.4192 57.463 75.6232 59.266 75.6232 59.9067C75.6232 60.216 75.2863 61.0694 74.8744 61.8026C74.4625 62.5358 74.1256 63.524 74.1256 63.9984C74.1256 64.4725 73.9994 64.9862 73.8448 65.1397C73.5778 65.4045 72.8327 69.0517 72.3845 72.2874C72.2703 73.1112 72.0255 73.9455 71.8409 74.1409C71.6559 74.3368 71.5047 75.1269 71.5047 75.8975C71.5047 76.6681 71.3579 77.389 71.1786 77.4998C70.9992 77.6107 70.754 79.5163 70.6334 81.7346C70.5132 83.9528 70.2523 88.8009 70.0542 92.508C69.694 99.2498 69.8737 103.079 70.8476 109.423C71.1059 111.107 71.4436 112.609 71.5983 112.762C71.7529 112.916 71.8791 113.597 71.8791 114.276C71.8791 114.956 72.1198 116.065 72.4137 116.741C73.0622 118.233 74.1256 121.687 74.1256 122.301C74.1256 122.546 74.631 123.741 75.2488 124.957C75.8666 126.173 76.3721 127.502 76.3721 127.91C76.3721 128.319 76.5188 128.946 76.6986 129.304C76.8779 129.661 77.8349 131.618 78.8252 133.652C79.8152 135.686 80.9796 137.876 81.4124 138.52C81.8456 139.163 82.4784 140.282 82.8187 141.006C83.1591 141.73 83.8697 142.728 84.3976 143.224C84.9259 143.72 85.358 144.317 85.358 144.549C85.358 144.782 85.9477 145.544 86.6685 146.243C87.3892 146.941 87.9789 147.674 87.9789 147.87C87.9789 148.884 101.527 162.906 103.33 163.759C104.051 164.1 105.06 164.763 105.573 165.234C106.085 165.704 106.699 166.089 106.937 166.089C107.174 166.089 107.46 166.327 107.572 166.619C107.778 167.156 108.327 167.496 111.84 169.268C112.918 169.811 113.893 170.409 114.009 170.596C114.304 171.073 121.064 174.327 121.761 174.327C122.076 174.327 122.54 174.576 122.793 174.881C123.458 175.683 125.346 176.553 126.99 176.816C127.774 176.941 128.416 177.191 128.416 177.37C128.416 177.55 128.734 177.697 129.122 177.697C129.51 177.697 130.31 177.949 130.9 178.256C131.49 178.564 132.258 178.817 132.606 178.818C132.954 178.819 133.343 178.989 133.47 179.195C133.598 179.401 134.103 179.569 134.593 179.569C135.084 179.569 135.58 179.723 135.697 179.911C135.813 180.099 136.58 180.366 137.402 180.505C138.223 180.644 138.99 180.912 139.107 181.1C139.223 181.288 139.897 181.442 140.606 181.442C141.315 181.442 141.895 181.61 141.895 181.816C141.895 182.022 142.474 182.19 143.183 182.19C143.892 182.19 144.565 182.342 144.679 182.527C144.793 182.712 146.067 182.982 147.509 183.127C148.952 183.271 150.132 183.541 150.132 183.726C150.132 183.911 150.964 184.063 151.982 184.063C152.999 184.063 153.926 184.215 154.041 184.401C154.156 184.587 156.061 184.851 158.275 184.988C160.489 185.125 162.553 185.323 162.862 185.428C163.171 185.532 196.784 185.607 237.557 185.594C279.904 185.58 313.538 185.719 315.997 185.917C326.891 186.794 332.165 188.04 338.731 191.288C352.087 197.896 359.391 208.887 360.065 223.392C360.425 231.121 359.275 235.709 355.649 241.004C352.614 245.435 347.724 249.927 343.517 252.149C337.346 255.408 326.04 259.29 320.49 260.055C313.398 261.034 290.202 262.116 281.177 261.889L276.122 261.762V268.503V275.243L280.053 275.308C282.216 275.343 289.376 275.586 295.966 275.848C312.147 276.49 335.105 276.468 342.019 275.802C344.078 275.604 348.627 275.362 352.128 275.264C358.603 275.083 363.466 274.548 370.849 273.207C373.114 272.795 375.619 272.453 376.414 272.446C380.701 272.411 394.847 269.639 399.729 267.877C403.523 266.508 408.601 263.631 412.035 260.905C418.229 255.988 425.576 247.294 427.037 243.153C427.337 242.303 427.729 241.423 427.909 241.2C428.529 240.425 430.148 234.414 430.59 231.244C430.834 229.494 431.018 225.738 430.999 222.899C430.962 217.52 430.194 213.306 428.35 208.378C427.304 205.581 424.485 200.164 422.733 197.584C421.248 195.397 414.913 188.812 412.506 186.954C411.212 185.955 404.498 181.816 404.171 181.816C404.085 181.816 402.771 181.226 401.253 180.505C399.734 179.785 398.307 179.195 398.082 179.195C397.857 179.195 395.934 178.514 393.808 177.682C388.722 175.69 380.605 173.692 373.283 172.631C371.326 172.347 368.081 171.854 366.071 171.535C362.865 171.026 351.828 170.94 276.024 170.837C182.516 170.708 186.64 170.798 180.825 168.778C174.07 166.432 166.779 160.788 163.649 155.482C160.194 149.626 157.754 139.603 158.118 132.762C158.628 123.185 161.153 116.591 166.276 111.459C169.966 107.762 177.735 104.099 186.075 102.124C187.002 101.904 188.266 101.6 188.884 101.447C189.501 101.295 190.681 101.118 191.504 101.055C192.328 100.991 194.35 100.839 195.997 100.716C197.645 100.594 199.161 100.36 199.367 100.196C199.573 100.032 201.384 99.7785 203.392 99.6321C205.399 99.4857 207.122 99.2348 207.221 99.0749C207.32 98.9154 208.919 98.6656 210.774 98.5207C212.629 98.3754 214.246 98.0961 214.367 97.9002C214.488 97.704 215.122 97.5486 215.776 97.555C217.201 97.5685 222.426 96.7233 222.955 96.3938C223.161 96.2657 224.172 96.0407 225.202 95.8935C226.231 95.7464 227.579 95.4097 228.197 95.1453C228.815 94.881 230.079 94.4552 231.005 94.1995C233.517 93.5056 237.882 91.7221 241.676 89.8385C244.757 88.3093 245.881 87.6352 248.603 85.6884C249.117 85.3203 251.232 83.3121 253.301 81.2264C256.802 77.6964 259.228 74.5956 261.844 70.305C262.997 68.4151 264.696 63.7906 264.7 62.5328C264.701 62.1104 264.857 61.6052 265.047 61.4094C265.236 61.2139 265.557 57.7959 265.761 53.8143C266.265 43.9721 265.867 41.4576 262.854 35.4588C259.843 29.46 254.757 22.8269 250.466 19.3018C249.338 18.375 248.331 17.5208 248.228 17.404C247.198 16.2327 242.217 12.9558 239.486 11.6527C234.662 9.35132 219.142 4.27144 212.659 2.87247C201.972 0.565813 197.864 0.194337 181.208 0.0295757C173.486 -0.0468135 164.724 0.0299794 161.739 0.199983ZM372.461 90.2718C372.352 90.3804 364.616 90.5388 355.269 90.6234C344.365 90.7223 337.805 90.9252 336.964 91.19C336.244 91.4169 331.189 91.7737 325.732 91.9831C320.275 92.1924 315.473 92.5166 315.061 92.7039C313.996 93.188 310.25 93.3535 293.937 93.6363C286.025 93.7733 279.159 94.0351 278.679 94.2174C277.831 94.5402 277.807 94.6743 277.807 99.1989C277.807 103.28 277.887 103.88 278.462 104.106C278.823 104.247 281.813 104.504 285.108 104.676C291.387 105.005 294.763 105.687 301.899 108.067C303.721 108.674 305.397 109.171 305.623 109.171C306.852 109.171 317.322 112.671 320.303 114.079C321.539 114.662 324.993 116.088 327.979 117.247C334.36 119.725 335.807 120.504 342.768 125.206C350.02 130.104 356.701 135.317 363.11 141.078C364.982 142.761 367.222 144.344 370.287 146.15C372.966 147.729 379.177 150.736 379.759 150.736C380.09 150.736 380.748 150.907 381.221 151.116C384.208 152.436 398.998 153.627 399.997 152.627C400.213 152.411 401.061 152.234 401.88 152.234C403.584 152.234 406.368 151.436 408.566 150.318C408.924 150.136 409.457 149.987 409.751 149.987C411.111 149.987 420.084 143.059 420.084 142.008C420.084 141.82 420.522 141.136 421.056 140.49C422.659 138.551 424.577 135.273 424.583 134.46C424.589 133.669 425.312 131.401 425.801 130.64C425.955 130.399 426.277 127.999 426.517 125.306C426.989 119.994 427.088 120.646 424.671 113.103C423.423 109.208 420.605 105.11 416.34 100.991C414.328 99.0472 410.806 96.6072 410.481 96.9319C410.354 97.0592 409.953 96.7899 409.589 96.3335C409.226 95.877 408.28 95.1903 407.486 94.8069C406.693 94.4238 405.752 93.9602 405.394 93.7771C405.036 93.594 404.354 93.4442 403.878 93.4442C403.401 93.4442 402.851 93.2929 402.655 93.1079C402.029 92.5152 394.998 91.3019 387.323 90.4617C384.028 90.1007 372.776 89.9572 372.461 90.2718ZM32.0384 145.812C31.9302 145.987 30.0252 146.248 27.8053 146.392C25.585 146.535 23.6081 146.813 23.4119 147.009C23.2161 147.205 22.6994 147.366 22.2643 147.366C21.8293 147.366 20.6 147.787 19.533 148.302C18.4659 148.817 17.4538 149.238 17.2839 149.238C17.1139 149.238 16.286 149.828 15.444 150.549C14.6019 151.27 13.7674 151.859 13.5895 151.859C13.1118 151.859 7.47982 157.609 7.47982 158.097C7.47982 158.326 7.07396 158.779 6.57824 159.104C6.08214 159.429 5.2236 160.621 4.66984 161.753C4.11608 162.885 3.42679 164.007 3.13774 164.246C2.8487 164.486 2.61244 165.001 2.61244 165.391C2.61244 166.088 2.45818 166.492 1.49631 168.319C1.22973 168.825 0.927191 170.725 0.823478 172.542C0.72014 174.359 0.490624 175.935 0.313526 176.044C-0.11106 176.307 -0.101698 178.945 0.325135 179.401C0.508598 179.596 0.731382 181.234 0.820119 183.041C0.908855 184.848 1.17992 186.524 1.42254 186.767C1.66516 187.01 1.86361 187.514 1.86361 187.887C1.86361 188.261 2.01487 188.859 2.19946 189.217C2.38442 189.574 2.83483 190.625 3.20101 191.552C3.56681 192.479 4.64551 194.332 5.59802 195.671C6.55015 197.01 7.44238 198.4 7.58017 198.76C7.71795 199.121 8.07214 199.415 8.36718 199.415C8.66222 199.415 9.25155 200.005 9.67651 200.726C10.1018 201.447 10.674 202.037 10.948 202.037C11.2221 202.037 12.1046 202.711 12.9088 203.534C13.7131 204.358 14.5525 205.032 14.7742 205.032C14.9958 205.032 15.4197 205.369 15.7158 205.779C16.012 206.19 16.8495 206.636 17.577 206.77C18.3041 206.903 18.9837 207.115 19.0867 207.239C19.1896 207.364 20.0261 207.856 20.9453 208.333C22.1209 208.942 23.5366 209.264 25.719 209.418C27.4252 209.539 28.8214 209.78 28.8214 209.956C28.8214 210.375 38.8265 210.371 39.0856 209.952C39.1953 209.775 40.3425 209.544 41.635 209.439C43.7452 209.268 46.2078 208.32 47.3362 207.244C47.5321 207.057 48.0588 206.905 48.5074 206.905C48.9556 206.905 49.5322 206.652 49.7886 206.343C50.0451 206.034 50.4012 205.781 50.5805 205.781C51.2833 205.781 55.7793 201.696 55.7793 201.057C55.7793 200.772 55.9991 200.539 56.2675 200.539C56.9684 200.539 59.149 198.188 59.149 197.432C59.149 197.081 59.3598 196.792 59.617 196.79C60.5781 196.78 64.0164 190.62 64.0164 188.908C64.0164 188.303 64.1849 187.807 64.3908 187.807C64.5967 187.807 64.7652 187.143 64.7652 186.332C64.7652 185.52 64.9337 184.752 65.1396 184.624C65.3632 184.486 65.514 182.069 65.514 178.633C65.514 175.197 65.3632 172.78 65.1396 172.642C64.9337 172.514 64.7652 171.66 64.7652 170.742C64.7652 169.825 64.6226 168.781 64.4485 168.424C61.9582 163.311 61.0211 161.246 61.0211 160.871C61.0211 160.623 58.7765 158.189 56.0328 155.462C51.6457 151.103 50.664 150.321 47.8892 148.982C44.3263 147.261 43.6819 147.075 39.4923 146.552C37.8448 146.347 36.2045 146.025 35.847 145.836C35.0274 145.405 32.3009 145.387 32.0384 145.812ZM123.735 208.421C119.471 208.89 115.571 209.865 107.836 212.395C105.392 213.194 100.53 215.737 95.6327 218.777C95.2328 219.025 93.9789 219.765 92.8463 220.421C88.6603 222.847 82.721 229.345 77.8177 236.861C73.4176 243.606 72.7556 244.725 71.3905 247.72C70.6866 249.265 69.5135 251.736 68.7838 253.213C68.0541 254.689 67.1768 256.88 66.8342 258.081C66.4916 259.282 65.3957 262.876 64.399 266.069C62.4629 272.269 60.6586 282.1 59.8975 290.596C58.9618 301.036 58.4047 309.172 58.3964 312.501C58.3814 318.77 59.1917 331.619 59.9544 337.216C60.3614 340.202 60.8324 343.656 61.0005 344.892C61.169 346.128 61.8141 349.245 62.4349 351.819C63.0553 354.394 63.6779 357.174 63.8187 357.998C64.0871 359.571 64.9835 362.716 65.5257 363.989C65.7013 364.401 65.9577 365.328 66.0959 366.049C66.2341 366.77 66.8151 368.221 67.3869 369.273C67.959 370.326 68.5427 371.714 68.6842 372.358C68.8257 373.002 69.0968 373.625 69.287 373.743C69.4772 373.86 69.633 374.241 69.6334 374.59C69.6345 375.27 72.6328 381.441 73.4281 382.4C73.9388 383.015 74.4408 383.857 75.4296 385.756C75.7651 386.4 76.4514 387.314 76.9547 387.787C77.4579 388.26 77.8697 388.811 77.8697 389.012C77.8697 389.56 80.5288 392.541 85.5557 397.627C89.9809 402.104 92.1124 403.979 93.9695 405.026C94.4844 405.317 95.4462 406.006 96.1071 406.559C96.7683 407.112 97.9477 407.842 98.728 408.181C99.5086 408.521 100.4 408.949 100.709 409.132C101.018 409.315 101.86 409.741 102.581 410.078C103.302 410.415 104.714 411.116 105.721 411.637C106.726 412.157 108.158 412.738 108.903 412.928C109.647 413.117 110.931 413.441 111.754 413.647C112.578 413.853 113.412 414.181 113.608 414.375C113.803 414.569 114.486 414.728 115.124 414.728C115.762 414.728 116.445 414.879 116.64 415.064C117.319 415.705 120.408 415.949 128.416 415.994C138.184 416.048 140.595 415.778 143.481 414.31C143.838 414.128 144.46 413.979 144.863 413.979C145.265 413.979 145.699 413.811 145.826 413.605C145.953 413.399 146.295 413.23 146.586 413.23C146.877 413.23 148.035 412.809 149.16 412.294C150.286 411.779 151.326 411.358 151.471 411.358C151.617 411.358 152.623 410.6 153.708 409.673C154.793 408.746 156.018 407.988 156.432 407.988C156.845 407.988 157.239 407.861 157.308 407.707C157.526 407.216 160.912 404.618 161.333 404.618C161.556 404.618 161.739 404.365 161.739 404.056C161.739 403.747 161.932 403.494 162.169 403.494C162.743 403.494 170.724 395.61 170.724 395.043C170.724 394.799 170.988 394.381 171.309 394.114C171.631 393.847 172.496 392.689 173.232 391.54C173.968 390.392 174.884 388.996 175.268 388.437C175.652 387.88 175.966 387.216 175.966 386.962C175.966 386.709 176.541 385.312 177.244 383.858C177.946 382.404 178.79 380.624 179.119 379.904C179.448 379.183 180.043 378.057 180.441 377.401C180.839 376.746 181.278 375.606 181.416 374.869C181.554 374.132 181.817 373.437 181.999 373.324C182.182 373.212 182.331 372.79 182.331 372.387C182.331 371.985 182.488 371.363 182.679 371.005C183.197 370.036 184.203 366.573 184.203 365.76C184.203 365.369 184.319 364.935 184.46 364.793C184.975 364.279 185.712 361.69 185.945 359.578C186.077 358.387 186.329 357.324 186.505 357.215C186.681 357.107 186.824 356.219 186.824 355.242C186.824 354.266 186.985 353.306 187.182 353.109C187.379 352.912 187.657 351.356 187.799 349.652C187.941 347.948 188.201 346.465 188.377 346.356C188.553 346.247 188.696 344.493 188.696 342.458C188.696 340.423 188.838 338.67 189.012 338.563C189.185 338.456 189.436 335.717 189.57 332.478C189.704 329.238 189.983 326.418 190.191 326.21C190.398 326.002 190.568 325.286 190.568 324.618C190.568 323.951 190.737 323.301 190.943 323.173C191.149 323.046 191.317 322.456 191.317 321.863C191.317 321.269 191.469 320.69 191.655 320.575C191.84 320.46 192.11 319.355 192.253 318.118C192.397 316.882 192.666 315.776 192.852 315.661C193.037 315.547 193.189 315.051 193.189 314.561C193.189 314.07 193.334 313.579 193.511 313.47C193.689 313.36 193.934 312.537 194.057 311.641C194.18 310.745 194.606 309.35 195.003 308.542C195.401 307.733 196.036 306.313 196.413 305.387C196.791 304.46 197.198 303.617 197.317 303.514C197.641 303.235 198.806 300.651 198.806 300.212C198.806 300.003 198.932 299.776 199.086 299.707C199.49 299.528 201.426 296.883 201.426 296.511C201.426 296.013 208.692 288.911 209.202 288.911C209.456 288.911 209.664 288.778 209.664 288.617C209.664 288.455 210.19 287.992 210.833 287.587C211.476 287.183 212.444 286.56 212.985 286.204C213.527 285.848 214.601 285.261 215.373 284.899C216.146 284.537 216.777 284.125 216.777 283.984C216.777 283.843 217.325 283.608 217.994 283.461C218.664 283.314 220.3 282.627 221.63 281.933C222.961 281.24 224.509 280.673 225.071 280.673C225.633 280.673 226.198 280.504 226.325 280.298C226.452 280.092 227.206 279.924 228.001 279.924C228.795 279.924 229.501 279.762 229.57 279.565C229.681 279.246 232.012 278.806 236.902 278.18C237.777 278.067 238.493 277.824 238.493 277.639C238.493 277.454 239.892 277.302 241.601 277.302C243.31 277.302 244.884 277.127 245.099 276.912C245.329 276.682 248.865 276.412 253.692 276.257L261.894 275.992L261.997 269.158L262.098 262.324L254.134 262.316C235.529 262.298 224.829 260.748 211.536 256.143C204.402 253.671 199.559 251.155 193.18 246.606C189.373 243.891 186.421 241.284 178.962 234.05C176.387 231.554 173.448 228.848 172.43 228.037C171.412 227.227 169.558 225.527 168.311 224.261C165.486 221.391 162.918 219.334 158.4 216.32C152.788 212.577 149.436 211.094 142.513 209.29C139.312 208.457 137.767 208.284 132.721 208.196C129.427 208.138 125.383 208.239 123.735 208.421Z" fill="url(#shapeGradient)"></path>
        </svg></svg><style>@media (prefers-color-scheme: light) { :root { filter: none; } }
@media (prefers-color-scheme: dark) { :root { filter: none; } }
</style></svg>